<?xml version="1.0" encoding="UTF-8" standalone="no"?>
<!DOCTYPE svg PUBLIC "-//W3C//DTD SVG 1.1//EN" "http://www.w3.org/Graphics/SVG/1.1/DTD/svg11.dtd">
<svg width="100%" height="100%" viewBox="0 0 3546 649" version="1.1" xmlns="http://www.w3.org/2000/svg" xmlns:xlink="http://www.w3.org/1999/xlink" xml:space="preserve" xmlns:serif="http://www.serif.com/" style="fill-rule:evenodd;clip-rule:evenodd;stroke-linejoin:round;stroke-miterlimit:2;">
    <path d="M1034.16,565.644L1034.16,439.953L1224.84,439.953L1224.84,366.057L1034.16,366.057L1034.16,241.682L1240.68,241.682L1240.68,167.128L1024.15,167.128C1021.71,167.036 1018.73,166.965 1015.29,166.965C960.605,166.965 951.01,184.432 951.01,237.986L951.01,326.032C951.01,369.69 936.459,394.607 911.447,402.469C910.972,402.619 910.972,403.228 911.447,403.373C936.459,411.24 951.01,436.157 951.01,479.815L951.01,567.857C951.01,620.503 959.834,638.236 1012.62,638.823L1012.62,638.882L1245.3,638.882L1245.3,565.644L1034.16,565.644L1034.16,565.644Z" style="fill:rgb(64,70,72);fill-rule:nonzero;"/>
    <path d="M1410.61,241.683L1292.51,241.683L1292.51,167.125L1612.34,167.125L1628.09,241.683L1494.41,241.683L1494.41,638.883L1410.61,638.883L1410.61,241.683Z" style="fill:rgb(64,70,72);fill-rule:nonzero;"/>
    <path d="M2142.7,638.883L2032.51,638.883L1972.47,361.108C1960.59,304.362 1958.61,291.829 1950.04,238.387L1948.72,238.387C1940.14,291.829 1936.84,303.045 1924.3,361.108L1864.26,638.883L1748.8,638.883L1649.17,167.125L1737.58,167.125L1787.73,439.625C1797.62,494.387 1800.92,503.625 1808.18,559.05L1810.16,559.05C1819.4,504.283 1821.38,494.387 1833.91,440.283L1895.28,167.125L2006.12,167.125L2065.5,436.983C2077.38,491.087 2080.68,510.883 2087.93,559.05L2089.25,559.05C2095.19,510.883 2100.47,491.75 2111.03,436.325L2163.15,167.125L2244.96,167.125L2142.7,638.883Z" style="fill:rgb(64,70,72);fill-rule:nonzero;"/>
    <path d="M2342.22,402.674C2342.22,501.645 2398.96,576.203 2492.65,576.203C2586.35,576.203 2643.75,502.303 2643.75,402.674C2643.75,301.724 2587.01,229.808 2491.99,229.808C2398.3,229.808 2342.22,303.045 2342.22,402.674M2730.84,403.337C2730.84,545.849 2635.83,648.12 2493.32,648.12C2352.12,648.12 2255.79,545.849 2255.79,403.337C2255.79,260.816 2352.77,157.891 2492.65,157.891C2633.19,157.891 2730.84,260.158 2730.84,403.337" style="fill:rgb(64,70,72);fill-rule:nonzero;"/>
    <path d="M2863.04,384.201L2931.66,384.201C2993.02,384.201 3031.95,363.088 3031.95,310.963C3031.95,257.518 2993.02,239.043 2931.66,239.043L2863.04,239.043L2863.04,384.201ZM2779.24,167.126L2935.62,167.126C2983.12,167.126 3025.35,171.084 3059.66,194.18C3095.94,218.588 3115.74,257.518 3115.74,305.684C3115.74,389.48 3061.64,431.047 3002.91,444.901L3121.02,638.884L3025.35,638.884L2916.48,455.459L2863.04,455.459L2863.04,638.884L2779.24,638.884L2779.24,167.126Z" style="fill:rgb(64,70,72);fill-rule:nonzero;"/>
    <path d="M3177.87,167.126L3261.67,167.126L3261.67,378.264L3319.72,307.001C3358.66,259.497 3398.24,215.293 3437.83,167.126L3539.44,167.126L3348.76,383.539L3545.38,638.885L3443.11,638.885L3311.15,465.355L3261.67,400.035L3261.67,638.885L3177.87,638.885L3177.87,167.126Z" style="fill:rgb(64,70,72);fill-rule:nonzero;"/>
    <path d="M853.168,402.821C871.922,393.834 884.36,370.184 886.001,339.138L886.001,235.217C886.001,198.563 890.555,176.446 910.926,167.538C911.214,167.409 911.155,167.009 910.839,167.009L806.46,167.125C806.297,167.125 806.168,167.255 806.168,167.417L806.168,400.034C806.168,445.563 806.826,497.688 806.826,524.738L806.168,525.396C793.63,503.621 770.539,465.355 754.701,437.642L597.755,167.271C597.701,167.18 597.605,167.125 597.501,167.125L495.035,167.125C494.872,167.125 494.743,167.259 494.743,167.417L494.743,638.592C494.743,638.75 494.872,638.884 495.035,638.884L576.264,638.884C576.426,638.884 576.555,638.75 576.555,638.592L576.555,434.346C576.555,392.775 575.897,307.005 575.897,281.271L576.555,281.271C583.814,294.467 606.247,331.417 634.618,380.242L786.289,638.738C786.343,638.83 786.439,638.884 786.543,638.884L801.889,638.884L806.46,638.767L910.839,638.884C911.155,638.884 911.214,638.48 910.926,638.355C890.555,629.446 886.001,607.33 886.001,570.675L886.001,466.625C884.351,435.442 872.064,411.742 853.168,402.821" style="fill:rgb(64,70,72);fill-rule:nonzero;"/>
    <path d="M121.296,167.125L121.296,241.683L244.967,241.683L244.967,638.883L328.763,638.883L328.763,241.683L446.871,241.683L446.871,167.125L121.296,167.125Z" style="fill:url(#_Linear1);fill-rule:nonzero;"/>
    <rect x="0" y="167.125" width="83.796" height="471.758" style="fill:url(#_Linear2);fill-rule:nonzero;"/>
    <path d="M0,41.74C0,64.776 18.704,83.479 41.742,83.479C64.78,83.479 83.483,64.776 83.483,41.74C83.483,18.703 64.78,0 41.742,0C18.704,0 0,18.703 0,41.74Z" style="fill:url(#_Linear3);"/>
    <defs>
        <linearGradient id="_Linear1" x1="0" y1="0" x2="1" y2="0" gradientUnits="userSpaceOnUse" gradientTransform="matrix(417.511,-74.6542,74.6542,417.511,-39.2395,450.258)"><stop offset="0" style="stop-color:rgb(243,117,116);stop-opacity:1"/><stop offset="0.15" style="stop-color:rgb(243,117,116);stop-opacity:1"/><stop offset="0.51" style="stop-color:rgb(144,38,141);stop-opacity:1"/><stop offset="1" style="stop-color:rgb(249,175,64);stop-opacity:1"/></linearGradient>
        <linearGradient id="_Linear2" x1="0" y1="0" x2="1" y2="0" gradientUnits="userSpaceOnUse" gradientTransform="matrix(417.511,-74.6542,74.6542,417.511,-40.3475,417.71)"><stop offset="0" style="stop-color:rgb(243,117,116);stop-opacity:1"/><stop offset="0.11" style="stop-color:rgb(243,117,116);stop-opacity:1"/><stop offset="0.51" style="stop-color:rgb(144,38,141);stop-opacity:1"/><stop offset="1" style="stop-color:rgb(249,175,64);stop-opacity:1"/></linearGradient>
        <linearGradient id="_Linear3" x1="0" y1="0" x2="1" y2="0" gradientUnits="userSpaceOnUse" gradientTransform="matrix(417.511,-74.6542,74.6542,417.511,-102.948,67.6106)"><stop offset="0" style="stop-color:rgb(243,117,116);stop-opacity:1"/><stop offset="0.24" style="stop-color:rgb(243,117,116);stop-opacity:1"/><stop offset="0.59" style="stop-color:rgb(144,38,141);stop-opacity:1"/><stop offset="1" style="stop-color:rgb(249,175,64);stop-opacity:1"/></linearGradient>
    </defs>
</svg>
